<?xml version="1.0" encoding="iso-8859-1"?>
<!-- Generator: Adobe Illustrator 19.0.0, SVG Export Plug-In . SVG Version: 6.00 Build 0)  -->
<svg version="1.1" id="Layer_1" xmlns="http://www.w3.org/2000/svg" xmlns:xlink="http://www.w3.org/1999/xlink" x="0px" y="0px"
	 viewBox="0 0 490 490" style="enable-background:new 0 0 490 490;" xml:space="preserve">
<g>
	<g>
		<path d="M326.15,145.7c-19.2-15.8-39.8-26.9-47.6-30.9V87.2c4.6-4,7.1-9.7,7.1-15.8V37c0-20.4-16.6-37-37-37h-7.4
			c-20.4,0-37,16.6-37,37v34.4c0,6.1,2.5,11.8,6.9,15.8v27.5c-7.8,4-28.4,15.1-47.6,30.9c-5.2,4.3-8.3,10.7-8.3,17.5v23.6
			c0,3.3,2.7,6,6,6c3.3,0,6-2.7,6-6v-23.6c0-3.2,1.4-6.2,3.9-8.2c20.9-17.1,43.5-28.6,47.8-30.7c2.6-1.3,4.2-3.9,4.2-6.8V84.3
			c0-2-1-3.9-2.7-5c-2.7-1.8-4.3-4.7-4.3-7.9V37c0-13.8,11.2-25,25-25h7.4c13.8,0,25,11.2,25,25v34.4c0,3.2-1.6,6.1-4.3,7.9
			c-1.7,1.1-2.7,3-2.7,5v33.2c0,2.9,1.7,5.5,4.2,6.8c4.3,2.1,26.9,13.5,47.8,30.7c2.5,2,3.9,5,3.9,8.2v23.6c0,3.3,2.7,6,6,6
			s6-2.7,6-6v-23.6C334.45,156.4,331.45,150,326.15,145.7z"/>
	</g>
</g>
<g>
	<g>
		<path d="M444.55,447.3c-16.6-13.7-34.5-23.4-41.6-27.1v-23.5c3.9-3.7,6.1-8.8,6.1-14.2v-30.3c0-18.3-14.9-33.3-33.3-33.3h-6.5
			c-18.3,0-33.3,14.9-33.3,33.3v30.3c0,5.4,2.2,10.5,6.1,14.2v23.5c-7.2,3.7-25,13.4-41.6,27.1c-4.8,3.9-7.5,9.8-7.5,16V484
			c0,3.3,2.7,6,6,6s6-2.7,6-6v-20.7c0-2.6,1.1-5.1,3.1-6.7c18.3-15,38.1-25,41.9-26.9c2.5-1.2,4.1-3.8,4.1-6.6v-29.2
			c0-2-1-3.9-2.7-5c-2.1-1.4-3.4-3.8-3.4-6.4v-30.3c0-11.7,9.5-21.3,21.3-21.3h6.5c11.7,0,21.3,9.5,21.3,21.3v30.3
			c0,2.6-1.3,4.9-3.4,6.4c-1.7,1.1-2.7,3-2.7,5v29.2c0,2.8,1.6,5.4,4.1,6.6c3.8,1.9,23.6,11.9,41.9,26.9c2,1.6,3.1,4.1,3.1,6.7V484
			c0,3.3,2.7,6,6,6c3.3,0,6-2.7,6-6v-20.7C452.05,457.1,449.35,451.3,444.55,447.3z"/>
	</g>
</g>
<g>
	<g>
		<path d="M187.85,445.8c-16.4-13.5-34-23.1-41.1-26.8v-23.1c3.8-3.6,6-8.7,6-14.1v-29.9c0-18.2-14.8-32.9-32.9-32.9h-6.4
			c-18.2,0-32.9,14.8-32.9,32.9v29.9c0,5.4,2.2,10.4,6,14.1V419c-7.1,3.7-24.7,13.3-41.1,26.8c-4.7,3.9-7.5,9.7-7.5,15.8v20.5
			c0,3.3,2.7,6,6,6s6-2.7,6-6v-20.5c0-2.6,1.1-5,3.1-6.6c18.1-14.8,37.7-24.7,41.4-26.6c2.5-1.2,4.1-3.8,4.1-6.6V393
			c0-2-1-3.9-2.7-5c-2.1-1.4-3.3-3.7-3.3-6.2v-29.9c0-11.5,9.4-20.9,20.9-20.9h6.4c11.5,0,20.9,9.4,20.9,20.9v29.9
			c0,2.5-1.3,4.8-3.3,6.2c-1.7,1.1-2.7,3-2.7,5v28.8c0,2.8,1.6,5.4,4.1,6.6c3.7,1.8,23.3,11.7,41.4,26.6c2,1.6,3.1,4,3.1,6.6v20.5
			c0,3.3,2.6,6,6,6c3.3,0,6-2.7,6-6v-20.5C195.35,455.4,192.65,449.7,187.85,445.8z"/>
	</g>
</g>
<g>
	<g>
		<path d="M372.45,242.1h-121.5v-37.8c0-3.3-2.7-6-6-6s-6,2.7-6,6v37.8h-122.4c-3.3,0-6,2.7-6,6v43.8c0,3.3,2.7,6,6,6
			c3.3,0,6-2.7,6-6v-37.8h243.9v37.8c0,3.3,2.7,6,6,6s6-2.7,6-6v-43.8C378.45,244.8,375.75,242.1,372.45,242.1z"/>
	</g>
</g>
<g>
</g>
<g>
</g>
<g>
</g>
<g>
</g>
<g>
</g>
<g>
</g>
<g>
</g>
<g>
</g>
<g>
</g>
<g>
</g>
<g>
</g>
<g>
</g>
<g>
</g>
<g>
</g>
<g>
</g>
</svg>
